<svg width="689" height="643" viewBox="0 0 689 643" fill="none" xmlns="http://www.w3.org/2000/svg">
<path d="M460.166 441.64L459.211 441.857L459.946 442.504L687.415 642.287H460.569L239.171 447.053L239.03 446.928H238.841H149.522H149.022V447.428V642.393H0.640625V77.8045C0.640625 67.2785 2.38266 56.8533 5.7686 46.316C10.9121 37.5674 16.0512 30.5123 22.8283 23.5633L22.8521 23.5388L22.8725 23.5113C27.9879 16.5877 36.4876 9.55333 46.7177 6.09176L46.7321 6.08688L46.7462 6.08114C55.2575 2.61129 65.4263 0.818115 75.71 0.818115H477.644C505.082 0.818115 528.976 6.10699 547.8 16.6544L547.816 16.6633L547.832 16.6711C566.558 25.4273 582.005 39.4654 593.96 55.2107L593.968 55.2218L593.977 55.2323C605.912 69.2643 614.463 86.7905 619.617 104.331C624.671 123.687 626.422 139.437 626.422 153.489V223.873C626.422 250.253 624.664 274.887 617.866 295.903C610.951 316.964 602.391 336.312 590.437 353.855C578.442 369.654 566.385 385.497 551.044 397.744C537.335 408.313 521.865 417.092 504.719 425.883C489.231 432.87 475.519 438.154 460.166 441.64ZM149.022 294.151V294.651H149.522H410.448C419.071 294.651 429.494 292.951 438.174 287.603C446.762 284.099 453.751 280.57 460.634 273.512C465.837 268.177 471.038 261.032 474.475 253.984L474.484 253.965L474.492 253.946C477.929 245.081 479.694 234.524 479.694 223.873V155.185V154.688L479.197 154.685L149.525 152.883L149.022 152.88V153.383V294.151Z" stroke="white"/>
</svg>
