<svg width="631" height="105" viewBox="0 0 631 105" fill="none" xmlns="http://www.w3.org/2000/svg">
<path d="M0.24 105V0.455998H50.352C75.312 0.455998 87.792 9.816 87.792 28.536C87.792 35.448 86.352 41.016 83.472 45.24C80.592 49.368 76.032 52.488 69.792 54.6C75.456 55.464 79.344 57.336 81.456 60.216C83.568 63.096 85.008 67.848 85.776 74.472C86.064 76.968 86.352 80.136 86.64 83.976C86.928 87.816 87.12 90.792 87.216 92.904C87.408 94.92 87.792 97.08 88.368 99.384C89.04 101.688 89.904 103.56 90.96 105H78.72C77.76 102.12 77.088 99 76.704 95.64C76.32 92.28 76.032 88.536 75.84 84.408C75.648 80.184 75.408 76.872 75.12 74.472C74.448 69.192 72.528 65.496 69.36 63.384C66.288 61.176 61.392 60.072 54.672 60.072H10.752V105H0.24ZM47.904 10.248H10.752V50.28H49.2C58.992 50.28 66.096 48.744 70.512 45.672C75.024 42.6 77.28 37.416 77.28 30.12C77.28 22.632 74.976 17.448 70.368 14.568C65.856 11.688 58.368 10.248 47.904 10.248ZM109.931 105V0.455998H190.139V10.248H120.299V46.824H184.811V56.616H120.299V95.064H190.139V105H109.931ZM198.261 105L246.501 0.455998H258.453L306.117 105H295.605L280.917 72.744H223.749L209.061 105H198.261ZM228.357 62.52H276.309L252.405 9.096L228.357 62.52ZM319.743 105V0.455998H330.111V95.064H395.775V105H319.743ZM412.854 105V0.455998H423.222V105H412.854ZM477.065 105V10.104H436.601V0.455998H527.897V10.104H487.433V105H477.065ZM574.941 105V59.784L529.869 0.455998H543.261L580.125 51.432L617.421 0.455998H630.381L585.309 59.784V105H574.941Z" fill="url(#paint0_linear_449_41)"/>
<defs>
<linearGradient id="paint0_linear_449_41" x1="310.5" y1="13" x2="341.244" y2="190.44" gradientUnits="userSpaceOnUse">
<stop stop-color="white"/>
<stop offset="1" stop-color="#FFFEFE" stop-opacity="0"/>
</linearGradient>
</defs>
</svg>
