<svg xmlns="http://www.w3.org/2000/svg">
    <g class="sprite" id="logo">
        <svg width="659" height="108" viewBox="0 0 659 108" fill="none" xmlns="http://www.w3.org/2000/svg">
            <path d="M47.52 104.873L0.72 0.329289H12.24L54.144 95.8013L96.048 0.329289H107.568L60.624 104.873H47.52ZM121.385 104.873V0.329289H131.753V104.873H121.385ZM157.084 104.873V0.329289H207.196C232.156 0.329289 244.636 9.68929 244.636 28.4093C244.636 35.3213 243.196 40.8893 240.316 45.1133C237.436 49.2413 232.876 52.3613 226.636 54.4733C232.3 55.3373 236.188 57.2093 238.3 60.0893C240.412 62.9693 241.852 67.7213 242.62 74.3453C242.908 76.8413 243.196 80.0093 243.484 83.8493C243.772 87.6893 243.964 90.6653 244.06 92.7773C244.252 94.7933 244.636 96.9533 245.212 99.2573C245.884 101.561 246.748 103.433 247.804 104.873H235.564C234.604 101.993 233.932 98.8733 233.548 95.5133C233.164 92.1533 232.876 88.4093 232.684 84.2813C232.492 80.0573 232.252 76.7453 231.964 74.3453C231.292 69.0653 229.372 65.3693 226.204 63.2573C223.132 61.0493 218.236 59.9453 211.516 59.9453H167.596V104.873H157.084ZM204.748 10.1213H167.596V50.1533H206.044C215.836 50.1533 222.94 48.6173 227.356 45.5453C231.868 42.4733 234.124 37.2893 234.124 29.9933C234.124 22.5053 231.82 17.3213 227.212 14.4413C222.7 11.5613 215.212 10.1213 204.748 10.1213ZM295.143 104.873V9.97729H254.679V0.329289H345.975V9.97729H305.511V104.873H295.143ZM358.603 0.329289H369.259V64.4093C369.259 75.7373 372.043 84.0893 377.611 89.4653C383.179 94.7453 392.011 97.3853 404.107 97.3853C416.203 97.3853 425.035 94.7453 430.603 89.4653C436.267 84.0893 439.099 75.7373 439.099 64.4093V0.329289H449.755V67.1453C449.755 80.1053 445.819 90.0893 437.947 97.0973C430.075 104.105 418.795 107.609 404.107 107.609C389.227 107.609 377.899 104.153 370.123 97.2413C362.443 90.2333 358.603 80.0573 358.603 66.7133V0.329289ZM460.574 104.873L508.814 0.329289H520.766L568.43 104.873H557.918L543.23 72.6173H486.062L471.374 104.873H460.574ZM490.67 62.3933H538.622L514.718 8.96929L490.67 62.3933ZM582.056 104.873V0.329289H592.424V94.9373H658.088V104.873H582.056Z"
                  fill="url(#paint0_linear_449_40)"/>
            <defs>
                <linearGradient id="paint0_linear_449_40" x1="331.5" y1="12.8733" x2="361.456" y2="190.591"
                                gradientUnits="userSpaceOnUse">
                    <stop stop-color="white"/>
                    <stop offset="1" stop-color="#FFFEFE" stop-opacity="0"/>
                </linearGradient>
            </defs>
        </svg>
    </g>
</svg>
