<svg width="1452" height="653" viewBox="0 0 1452 653" fill="none" xmlns="http://www.w3.org/2000/svg">
<g opacity="0.15">
<path d="M357.96 404.077L358.411 405.023L358.863 404.077L551.63 0.606003H716.65L424.95 609.817L424.948 609.821C418.994 622.557 409.757 632.872 397.64 640.347L397.635 640.35C386.138 647.613 372.792 651.509 358.515 651.509C344.451 651.509 331.516 647.616 319.496 640.136L319.495 640.136C307.791 632.872 298.55 622.767 292.181 610.235C292.18 610.233 292.179 610.232 292.179 610.23L0.793108 0.5H165.916L357.96 404.077Z" stroke="white"/>
<path d="M1223.17 441.64L1222.21 441.857L1222.95 442.503L1450.41 642.286H1223.57L1002.17 447.052L1002.03 446.927H1001.84H912.522H912.022V447.427V642.392H763.641V77.8037C763.641 67.2778 765.383 56.8526 768.769 46.3153C773.912 37.5667 779.051 30.5116 785.828 23.5626L785.852 23.5381L785.872 23.5106C790.988 16.5869 799.488 9.5526 809.718 6.09103L809.732 6.08615L809.746 6.08041C818.257 2.61056 828.426 0.817383 838.71 0.817383H1240.64C1268.08 0.817383 1291.98 6.10626 1310.8 16.6536L1310.82 16.6626L1310.83 16.6704C1329.56 25.4266 1345 39.4647 1356.96 55.21L1356.97 55.221L1356.98 55.2316C1368.91 69.264 1377.46 86.791 1382.62 104.332C1387.67 123.688 1389.42 139.437 1389.42 153.488V223.872C1389.42 250.253 1387.66 274.886 1380.87 295.903C1373.95 316.963 1365.39 336.312 1353.44 353.855C1341.44 369.653 1329.39 385.496 1314.04 397.744C1300.33 408.312 1284.86 417.092 1267.72 425.883C1252.23 432.869 1238.52 438.153 1223.17 441.64ZM912.022 294.151V294.651H912.522H1173.45C1182.07 294.651 1192.49 292.95 1201.17 287.602C1209.76 284.099 1216.75 280.569 1223.63 273.512C1228.84 268.177 1234.04 261.032 1237.47 253.984L1237.48 253.965L1237.49 253.945C1240.93 245.08 1242.69 234.524 1242.69 223.872V155.184V154.687L1242.2 154.684L912.525 152.882L912.022 152.879V153.382V294.151Z" stroke="white"/>
</g>
</svg>
